<svg xmlns="http://www.w3.org/2000/svg" viewBox="0 0 100 100">
  <defs>
    <linearGradient id="grad" x1="0%" y1="0%" x2="100%" y2="100%">
      <stop offset="0%" style="stop-color:#9333ea;stop-opacity:1" />
      <stop offset="50%" style="stop-color:#ec4899;stop-opacity:1" />
      <stop offset="100%" style="stop-color:#f97316;stop-opacity:1" />
    </linearGradient>
  </defs>
  <rect width="100" height="100" rx="20" fill="url(#grad)"/>
  <g transform="translate(20, 20) scale(0.6)">
    <path d="M50 20c-6.25 0-12.5 3.125-15.625 7.8125-3.125-1.5625-6.25 0-7.8125 3.125-1.5625 3.125 0 6.25 3.125 7.8125-3.125 4.6875-3.125 10.9375 0 15.625-3.125 1.5625-3.125 6.25 0 7.8125 3.125 4.6875 0 10.9375-3.125 15.625-1.5625 3.125 0 6.25 3.125 7.8125 3.125 1.5625 6.25 0 7.8125-3.125 3.125-4.6875 6.25-3.125 9.375 0 3.125-3.125 6.25-3.125 9.375 0 1.5625 3.125 4.6875 3.125 7.8125 3.125 3.125-4.6875 6.25-10.9375 3.125-15.625 3.125-1.5625 3.125-6.25 0-7.8125-3.125-4.6875-3.125-10.9375 0-15.625 3.125-1.5625 4.6875-4.6875 3.125-7.8125-1.5625-3.125-4.6875-4.6875-7.8125-3.125-3.125-6.25-9.375-6.25-15.625-6.25z" fill="white" fill-opacity="0.95" stroke="white" stroke-width="1.5" stroke-opacity="0.8"/>
    <circle cx="37.5" cy="45" r="3" fill="white" fill-opacity="0.9"/>
    <circle cx="62.5" cy="45" r="3" fill="white" fill-opacity="0.9"/>
    <path d="M50 55c-3.125 0-6.25 1.5625-7.8125 4.6875 1.5625 1.5625 4.6875 1.5625 7.8125 1.5625s6.25 0 7.8125-1.5625c-1.5625-3.125-4.6875-4.6875-7.8125-4.6875z" fill="white" fill-opacity="0.9"/>
  </g>
</svg>
